# xmcd CD database file
# Copyright (C) 1993-1996 Ti Kan
#
# Track frame offsets:
#	160
#	18385
#	36340
#	53100
#	66242
#	82437
#	101587
#	119245
#	140512
#	144882
#	166537
#	192975
#	216525
#	234697
#	251707
#	274835
#
# Disc length: 3953 seconds
#
# Revision: 1
# Processed by: cddbd v1.4b41PL1 Copyright (c) Steve Scherf et al.
# Submitted via: xmcd 2.0
#
DISCID=fa0f6f10
DTITLE=Various Artist - Threadgill's Supper Session
DYEAR=1900
DGENRE=
TTITLE0=Waiting For a Train
TTITLE1=Travelin' Blues
TTITLE2=Brown's Ferry Blues
TTITLE3=Long Gone Lonesome
TTITLE4=Sweet Dreams
TTITLE5=Tamp 'em Up Solid
TTITLE6=Darkness on the Delta
TTITLE7=Stag-o-lee
TTITLE8=Introduction
TTITLE9=Deep River Blues
TTITLE10=Train of Love
TTITLE11=Sad Situation
TTITLE12=Deep Ellum Blues
TTITLE13=Pretend
TTITLE14=Bluebird
TTITLE15=Sittin' on Top of the World
EXTD=
EXTT0=
EXTT1=
EXTT2=
EXTT3=
EXTT4=
EXTT5=
EXTT6=
EXTT7=
EXTT8=
EXTT9=
EXTT10=
EXTT11=
EXTT12=
EXTT13=
EXTT14=
EXTT15=
PLAYORDER=
